<svg width="260" height="55" viewBox="0 0 260 55" fill="none" xmlns="http://www.w3.org/2000/svg">
<path d="M22.7637 34.6934C22.7637 35.0596 22.749 35.3745 22.7197 35.6382C22.7051 35.8872 22.6758 36.1069 22.6318 36.2974C22.5879 36.4731 22.5293 36.627 22.4561 36.7588C22.3828 36.8906 22.2656 37.0444 22.1045 37.2202C21.9434 37.3813 21.6284 37.5938 21.1597 37.8574C20.7056 38.1211 20.1416 38.3774 19.4678 38.6265C18.8086 38.8608 18.0469 39.0586 17.1826 39.2197C16.333 39.3809 15.4102 39.4614 14.4141 39.4614C12.4658 39.4614 10.708 39.1611 9.14062 38.5605C7.57324 37.96 6.24023 37.0664 5.1416 35.8799C4.04297 34.6787 3.20068 33.1846 2.61475 31.3975C2.02881 29.6104 1.73584 27.5303 1.73584 25.1572C1.73584 22.7402 2.05811 20.5942 2.70264 18.7192C3.34717 16.8442 4.24805 15.2695 5.40527 13.9951C6.5625 12.7207 7.94678 11.7539 9.55811 11.0947C11.1841 10.4355 12.9712 10.106 14.9194 10.106C15.7104 10.106 16.4722 10.1719 17.2046 10.3037C17.937 10.4355 18.6108 10.6113 19.2261 10.8311C19.856 11.0361 20.4199 11.2778 20.918 11.5562C21.416 11.8345 21.7603 12.0762 21.9507 12.2812C22.1558 12.4717 22.2949 12.6328 22.3682 12.7646C22.4414 12.8965 22.5 13.0649 22.5439 13.27C22.5879 13.4751 22.6172 13.7168 22.6318 13.9951C22.6611 14.2734 22.6758 14.6177 22.6758 15.0278C22.6758 15.4673 22.6611 15.8408 22.6318 16.1484C22.6025 16.4561 22.5513 16.7051 22.478 16.8955C22.4048 17.0859 22.3169 17.2251 22.2144 17.313C22.1118 17.4009 21.9946 17.4448 21.8628 17.4448C21.6431 17.4448 21.3647 17.3203 21.0278 17.0713C20.6909 16.8076 20.2515 16.522 19.7095 16.2144C19.1821 15.8921 18.5449 15.6064 17.7979 15.3574C17.0654 15.0938 16.1865 14.9619 15.1611 14.9619C14.0332 14.9619 13.0225 15.1963 12.1289 15.665C11.25 16.1191 10.4956 16.7783 9.86572 17.6426C9.25049 18.4922 8.78174 19.5249 8.45947 20.7407C8.13721 21.9565 7.97607 23.3262 7.97607 24.8496C7.97607 26.5195 8.14453 27.9697 8.48145 29.2002C8.83301 30.416 9.32373 31.4194 9.95361 32.2104C10.5981 33.0015 11.3672 33.5947 12.2607 33.9902C13.1689 34.3711 14.187 34.5615 15.3149 34.5615C16.3403 34.5615 17.2266 34.4443 17.9736 34.21C18.7207 33.9609 19.3579 33.6899 19.8853 33.397C20.4272 33.104 20.8667 32.8403 21.2036 32.606C21.5552 32.3716 21.8262 32.2544 22.0166 32.2544C22.1631 32.2544 22.2803 32.2837 22.3682 32.3423C22.4561 32.4009 22.5293 32.5181 22.5879 32.6938C22.6465 32.8696 22.6904 33.1187 22.7197 33.4409C22.749 33.7485 22.7637 34.166 22.7637 34.6934ZM62.688 24.4541C62.688 26.8125 62.395 28.9219 61.8091 30.7822C61.2231 32.6426 60.3516 34.2246 59.1943 35.5283C58.0371 36.8174 56.6016 37.8062 54.8877 38.4946C53.1885 39.1685 51.2183 39.5054 48.9771 39.5054C46.7651 39.5054 44.8315 39.2197 43.1763 38.6484C41.5356 38.0625 40.166 37.1763 39.0674 35.9897C37.9688 34.8032 37.1411 33.2944 36.5845 31.4634C36.0425 29.6323 35.7715 27.4644 35.7715 24.9595C35.7715 22.6597 36.0645 20.5942 36.6504 18.7632C37.2363 16.9175 38.1079 15.3501 39.2651 14.061C40.4224 12.772 41.8506 11.7832 43.5498 11.0947C45.2637 10.4063 47.2485 10.062 49.5044 10.062C51.6577 10.062 53.5547 10.3477 55.1953 10.9189C56.8506 11.4902 58.2275 12.3691 59.3262 13.5557C60.4395 14.7422 61.2744 16.2437 61.8311 18.0601C62.4023 19.8618 62.688 21.9932 62.688 24.4541ZM56.6235 24.7617C56.6235 23.2676 56.5063 21.9126 56.272 20.6968C56.0376 19.4663 55.6348 18.4189 55.0635 17.5547C54.5068 16.6758 53.7598 16.002 52.8223 15.5332C51.8848 15.0498 50.7129 14.8081 49.3066 14.8081C47.8857 14.8081 46.6992 15.0791 45.7471 15.6211C44.7949 16.1484 44.0259 16.8589 43.4399 17.7524C42.854 18.646 42.4365 19.6934 42.1875 20.8945C41.9531 22.0811 41.8359 23.3408 41.8359 24.6738C41.8359 26.2266 41.9531 27.6255 42.1875 28.8706C42.4219 30.1011 42.8174 31.1558 43.374 32.0347C43.9307 32.9136 44.6777 33.5874 45.6152 34.0562C46.5527 34.5103 47.7319 34.7373 49.1528 34.7373C50.5737 34.7373 51.7603 34.4736 52.7124 33.9463C53.6646 33.4189 54.4336 32.7012 55.0195 31.793C55.6055 30.8848 56.0156 29.8301 56.25 28.6289C56.499 27.4131 56.6235 26.124 56.6235 24.7617ZM98.855 38.2529C98.855 38.4141 98.8257 38.5532 98.7671 38.6704C98.7085 38.7729 98.5693 38.8608 98.3496 38.9341C98.1299 39.0073 97.8076 39.0586 97.3828 39.0879C96.958 39.1172 96.3794 39.1318 95.647 39.1318C95.0317 39.1318 94.541 39.1172 94.1748 39.0879C93.8086 39.0586 93.5156 39.0073 93.2959 38.9341C93.0908 38.8462 92.9443 38.7437 92.8564 38.6265C92.7686 38.4946 92.6953 38.3408 92.6367 38.165L90.0879 31.8149C89.7803 31.0972 89.48 30.46 89.187 29.9033C88.894 29.3467 88.5645 28.8853 88.1982 28.519C87.8467 28.1382 87.4365 27.8525 86.9678 27.6621C86.499 27.4717 85.957 27.3765 85.3418 27.3765H83.54V38.209C83.54 38.3555 83.4888 38.4873 83.3862 38.6045C83.2983 38.7217 83.1445 38.8169 82.9248 38.8901C82.7051 38.9634 82.4121 39.022 82.0459 39.0659C81.6797 39.1099 81.2109 39.1318 80.6396 39.1318C80.083 39.1318 79.6143 39.1099 79.2334 39.0659C78.8672 39.022 78.5742 38.9634 78.3545 38.8901C78.1348 38.8169 77.981 38.7217 77.8931 38.6045C77.8052 38.4873 77.7612 38.3555 77.7612 38.209V12.3911C77.7612 11.7466 77.9224 11.2852 78.2446 11.0068C78.5815 10.7139 78.9917 10.5674 79.4751 10.5674H86.8359C87.583 10.5674 88.1982 10.582 88.6816 10.6113C89.165 10.6406 89.6045 10.6772 90 10.7212C91.1426 10.8823 92.168 11.1606 93.0762 11.5562C93.999 11.9517 94.7754 12.4717 95.4053 13.1162C96.0498 13.7461 96.5405 14.5005 96.8774 15.3794C97.2144 16.2437 97.3828 17.2397 97.3828 18.3677C97.3828 19.3198 97.2583 20.1914 97.0093 20.9824C96.7749 21.7588 96.4233 22.4546 95.9546 23.0698C95.4858 23.6851 94.9072 24.2197 94.2188 24.6738C93.5303 25.1279 92.7466 25.4941 91.8677 25.7725C92.2925 25.9775 92.688 26.2266 93.0542 26.5195C93.4351 26.8125 93.7866 27.1714 94.1089 27.5962C94.4458 28.0063 94.7607 28.4824 95.0537 29.0244C95.3467 29.5518 95.6323 30.1523 95.9106 30.8262L98.3057 36.4292C98.5254 36.9858 98.6719 37.396 98.7451 37.6597C98.8184 37.9087 98.855 38.1064 98.855 38.2529ZM91.4062 18.9609C91.4062 18.0234 91.1938 17.2324 90.769 16.5879C90.3442 15.9434 89.6484 15.4893 88.6816 15.2256C88.3887 15.1523 88.0518 15.0938 87.6709 15.0498C87.3047 15.0059 86.792 14.9839 86.1328 14.9839H83.54V23.0479H86.4844C87.3047 23.0479 88.0225 22.9526 88.6377 22.7622C89.2529 22.5571 89.7656 22.2788 90.1758 21.9272C90.5859 21.561 90.8936 21.1289 91.0986 20.6309C91.3037 20.1328 91.4062 19.5762 91.4062 18.9609ZM136.604 36.8467C136.78 37.374 136.89 37.7915 136.934 38.0991C136.978 38.4067 136.919 38.6411 136.758 38.8022C136.597 38.9487 136.311 39.0366 135.901 39.0659C135.491 39.1099 134.927 39.1318 134.209 39.1318C133.462 39.1318 132.876 39.1172 132.451 39.0879C132.041 39.0732 131.726 39.0366 131.506 38.978C131.287 38.9048 131.133 38.8096 131.045 38.6924C130.957 38.5752 130.884 38.4214 130.825 38.231L128.914 32.5181H118.235L116.433 38.0771C116.375 38.2822 116.294 38.458 116.191 38.6045C116.104 38.7363 115.95 38.8462 115.73 38.9341C115.525 39.0073 115.225 39.0586 114.829 39.0879C114.448 39.1172 113.943 39.1318 113.313 39.1318C112.639 39.1318 112.112 39.1099 111.731 39.0659C111.35 39.022 111.086 38.9194 110.94 38.7583C110.793 38.5825 110.742 38.3408 110.786 38.0332C110.83 37.7256 110.94 37.3154 111.116 36.8027L119.883 11.5781C119.971 11.3291 120.073 11.1313 120.19 10.9849C120.308 10.8237 120.491 10.7065 120.74 10.6333C121.003 10.5454 121.362 10.4941 121.816 10.4795C122.271 10.4502 122.871 10.4355 123.618 10.4355C124.482 10.4355 125.171 10.4502 125.684 10.4795C126.196 10.4941 126.592 10.5454 126.87 10.6333C127.163 10.7065 127.368 10.8237 127.485 10.9849C127.617 11.146 127.727 11.3657 127.815 11.644L136.604 36.8467ZM123.552 15.9946H123.53L119.509 28.0796H127.573L123.552 15.9946ZM180.725 37.5278C180.637 37.8794 180.513 38.165 180.352 38.3848C180.205 38.5898 179.978 38.751 179.67 38.8682C179.363 38.9707 178.967 39.0366 178.484 39.0659C178 39.1099 177.385 39.1318 176.638 39.1318C175.803 39.1318 175.129 39.1099 174.617 39.0659C174.119 39.0366 173.723 38.9707 173.43 38.8682C173.137 38.751 172.925 38.5898 172.793 38.3848C172.661 38.165 172.559 37.8794 172.485 37.5278L167.937 19.5103H167.893L163.586 37.5278C163.513 37.8647 163.411 38.1431 163.279 38.3628C163.147 38.5679 162.935 38.729 162.642 38.8462C162.363 38.9634 161.975 39.0366 161.477 39.0659C160.994 39.1099 160.349 39.1318 159.543 39.1318C158.694 39.1318 158.013 39.1099 157.5 39.0659C157.002 39.0366 156.606 38.9707 156.313 38.8682C156.021 38.751 155.808 38.5898 155.676 38.3848C155.544 38.165 155.435 37.8794 155.347 37.5278L148.887 12.7207C148.755 12.1934 148.682 11.7832 148.667 11.4902C148.652 11.1826 148.733 10.9482 148.909 10.7871C149.099 10.626 149.399 10.5308 149.81 10.5015C150.234 10.4575 150.82 10.4355 151.567 10.4355C152.256 10.4355 152.798 10.4502 153.193 10.4795C153.604 10.4941 153.911 10.5454 154.116 10.6333C154.321 10.7065 154.46 10.8237 154.534 10.9849C154.607 11.1313 154.666 11.3437 154.709 11.6221L159.697 33.397H159.719L164.905 11.7759C164.963 11.4976 165.037 11.2705 165.125 11.0947C165.227 10.9189 165.388 10.7871 165.608 10.6992C165.842 10.5967 166.157 10.5308 166.553 10.5015C166.948 10.4575 167.476 10.4355 168.135 10.4355C168.838 10.4355 169.395 10.4502 169.805 10.4795C170.229 10.5088 170.552 10.5747 170.771 10.6772C171.006 10.7651 171.174 10.897 171.277 11.0728C171.379 11.2485 171.46 11.4829 171.519 11.7759L176.88 33.397H176.924L181.912 11.688C181.956 11.4536 182.014 11.2559 182.087 11.0947C182.161 10.9189 182.3 10.7871 182.505 10.6992C182.71 10.5967 183.003 10.5308 183.384 10.5015C183.765 10.4575 184.299 10.4355 184.988 10.4355C185.632 10.4355 186.13 10.4575 186.482 10.5015C186.848 10.5308 187.112 10.626 187.273 10.7871C187.434 10.9482 187.5 11.1899 187.471 11.5122C187.456 11.8198 187.383 12.2446 187.251 12.7866L180.725 37.5278ZM225.066 36.8467C225.242 37.374 225.352 37.7915 225.396 38.0991C225.439 38.4067 225.381 38.6411 225.22 38.8022C225.059 38.9487 224.773 39.0366 224.363 39.0659C223.953 39.1099 223.389 39.1318 222.671 39.1318C221.924 39.1318 221.338 39.1172 220.913 39.0879C220.503 39.0732 220.188 39.0366 219.968 38.978C219.749 38.9048 219.595 38.8096 219.507 38.6924C219.419 38.5752 219.346 38.4214 219.287 38.231L217.375 32.5181H206.697L204.895 38.0771C204.836 38.2822 204.756 38.458 204.653 38.6045C204.565 38.7363 204.412 38.8462 204.192 38.9341C203.987 39.0073 203.687 39.0586 203.291 39.0879C202.91 39.1172 202.405 39.1318 201.775 39.1318C201.101 39.1318 200.574 39.1099 200.193 39.0659C199.812 39.022 199.548 38.9194 199.402 38.7583C199.255 38.5825 199.204 38.3408 199.248 38.0332C199.292 37.7256 199.402 37.3154 199.578 36.8027L208.345 11.5781C208.433 11.3291 208.535 11.1313 208.652 10.9849C208.77 10.8237 208.953 10.7065 209.202 10.6333C209.465 10.5454 209.824 10.4941 210.278 10.4795C210.732 10.4502 211.333 10.4355 212.08 10.4355C212.944 10.4355 213.633 10.4502 214.146 10.4795C214.658 10.4941 215.054 10.5454 215.332 10.6333C215.625 10.7065 215.83 10.8237 215.947 10.9849C216.079 11.146 216.189 11.3657 216.277 11.644L225.066 36.8467ZM212.014 15.9946H211.992L207.971 28.0796H216.035L212.014 15.9946ZM250.752 28.2114V38.209C250.752 38.3555 250.701 38.4873 250.598 38.6045C250.51 38.7217 250.356 38.8169 250.137 38.8901C249.917 38.9634 249.617 39.022 249.236 39.0659C248.87 39.1099 248.408 39.1318 247.852 39.1318C247.28 39.1318 246.812 39.1099 246.445 39.0659C246.079 39.022 245.779 38.9634 245.544 38.8901C245.325 38.8169 245.171 38.7217 245.083 38.6045C244.995 38.4873 244.951 38.3555 244.951 38.209V28.2114L237.173 12.7207C236.895 12.1787 236.711 11.7612 236.624 11.4683C236.55 11.1606 236.594 10.9336 236.755 10.7871C236.931 10.626 237.246 10.5308 237.7 10.5015C238.154 10.4575 238.784 10.4355 239.59 10.4355C240.264 10.4355 240.798 10.4502 241.194 10.4795C241.604 10.5088 241.926 10.5674 242.161 10.6553C242.395 10.7285 242.563 10.8311 242.666 10.9629C242.783 11.0947 242.893 11.2632 242.996 11.4683L246.16 18.4556C246.467 19.1294 246.768 19.8398 247.061 20.5869C247.368 21.334 247.676 22.1177 247.983 22.938H248.027C248.306 22.147 248.591 21.3779 248.884 20.6309C249.177 19.8838 249.463 19.1733 249.741 18.4995L252.861 11.5562C252.935 11.3218 253.022 11.1387 253.125 11.0068C253.242 10.8604 253.411 10.7432 253.63 10.6553C253.85 10.5674 254.15 10.5088 254.531 10.4795C254.912 10.4502 255.417 10.4355 256.047 10.4355C256.882 10.4355 257.527 10.4575 257.981 10.5015C258.45 10.5308 258.765 10.626 258.926 10.7871C259.102 10.9336 259.146 11.1606 259.058 11.4683C258.97 11.7759 258.794 12.1934 258.53 12.7207L250.752 28.2114Z" fill="#098C8C"/>
</svg>
