<svg width="456" height="96" viewBox="0 0 456 96" fill="none" xmlns="http://www.w3.org/2000/svg">
<path d="M39.9629 60.4395C39.9629 61.0824 39.9372 61.6353 39.8857 62.0981C39.86 62.5353 39.8086 62.9211 39.7314 63.2554C39.6543 63.564 39.5514 63.834 39.4229 64.0654C39.2943 64.2969 39.0885 64.5669 38.8057 64.8755C38.5228 65.1584 37.9699 65.5312 37.147 65.9941C36.3498 66.457 35.3597 66.9071 34.1768 67.3442C33.0195 67.7557 31.6823 68.1029 30.165 68.3857C28.6735 68.6686 27.0534 68.8101 25.3047 68.8101C21.8844 68.8101 18.7985 68.2829 16.0469 67.2285C13.2952 66.1742 10.9551 64.6055 9.02637 62.5225C7.09766 60.4137 5.61898 57.7907 4.59033 54.6533C3.56169 51.516 3.04736 47.8643 3.04736 43.6982C3.04736 39.4551 3.61312 35.6877 4.74463 32.396C5.87614 29.1043 7.45768 26.3398 9.48926 24.1025C11.5208 21.8652 13.951 20.168 16.7798 19.0107C19.6343 17.8535 22.7716 17.2749 26.1919 17.2749C27.5806 17.2749 28.9178 17.3906 30.2036 17.6221C31.4894 17.8535 32.6724 18.1621 33.7524 18.5479C34.8582 18.9079 35.8483 19.3322 36.7227 19.8208C37.597 20.3094 38.2013 20.7337 38.5356 21.0938C38.8957 21.4281 39.14 21.7109 39.2686 21.9424C39.3971 22.1738 39.5 22.4696 39.5771 22.8296C39.6543 23.1896 39.7057 23.6139 39.7314 24.1025C39.7829 24.5911 39.8086 25.1955 39.8086 25.9155C39.8086 26.687 39.7829 27.3428 39.7314 27.8828C39.68 28.4229 39.59 28.86 39.4614 29.1943C39.3328 29.5286 39.1785 29.7729 38.9985 29.9272C38.8185 30.0815 38.6128 30.1587 38.3813 30.1587C37.9956 30.1587 37.507 29.9401 36.9155 29.5029C36.3241 29.04 35.5526 28.5386 34.6011 27.9985C33.6753 27.4328 32.5566 26.9313 31.2451 26.4941C29.9593 26.0312 28.4163 25.7998 26.6162 25.7998C24.6361 25.7998 22.8617 26.2113 21.293 27.0342C19.75 27.8314 18.4256 28.9886 17.3198 30.5059C16.2397 31.9974 15.4168 33.8104 14.8511 35.9448C14.2853 38.0793 14.0024 40.4837 14.0024 43.1582C14.0024 46.0898 14.2982 48.6357 14.8896 50.7959C15.5068 52.9303 16.3683 54.6919 17.4741 56.0806C18.6056 57.4692 19.9557 58.5107 21.5244 59.2051C23.1188 59.8737 24.9061 60.208 26.8862 60.208C28.6864 60.208 30.2422 60.0023 31.5537 59.5908C32.8652 59.1536 33.9839 58.6779 34.9097 58.1636C35.8612 57.6493 36.6326 57.1864 37.2241 56.7749C37.8413 56.3634 38.3171 56.1577 38.6514 56.1577C38.9085 56.1577 39.1143 56.2091 39.2686 56.312C39.4229 56.4149 39.5514 56.6206 39.6543 56.9292C39.7572 57.2378 39.8343 57.675 39.8857 58.2407C39.9372 58.7808 39.9629 59.5137 39.9629 60.4395ZM110.052 42.4639C110.052 46.6042 109.538 50.3073 108.509 53.5732C107.481 56.8392 105.951 59.6165 103.919 61.9053C101.887 64.1683 99.3672 65.9041 96.3584 67.1128C93.3753 68.2957 89.9165 68.8872 85.9819 68.8872C82.0988 68.8872 78.7043 68.3857 75.7983 67.3828C72.9181 66.3542 70.5137 64.7983 68.585 62.7153C66.6562 60.6323 65.2033 57.9836 64.2261 54.769C63.2746 51.5545 62.7988 47.7485 62.7988 43.3511C62.7988 39.3136 63.3132 35.6877 64.3418 32.4731C65.3704 29.2329 66.9006 26.4813 68.9321 24.2183C70.9637 21.9552 73.471 20.2194 76.4541 19.0107C79.4629 17.8021 82.9474 17.1978 86.9077 17.1978C90.688 17.1978 94.0182 17.6992 96.8984 18.7021C99.8044 19.7051 102.222 21.248 104.15 23.3311C106.105 25.4141 107.571 28.05 108.548 31.2388C109.551 34.4019 110.052 38.1436 110.052 42.4639ZM99.4058 43.0039C99.4058 40.3809 99.2 38.0021 98.7886 35.8677C98.3771 33.7075 97.6699 31.8688 96.667 30.3516C95.6898 28.8086 94.3783 27.6257 92.7324 26.8027C91.0866 25.9541 89.0293 25.5298 86.5605 25.5298C84.0661 25.5298 81.9831 26.0055 80.3115 26.957C78.64 27.8828 77.2899 29.13 76.2612 30.6987C75.2326 32.2674 74.4997 34.1061 74.0625 36.2148C73.651 38.2979 73.4453 40.5094 73.4453 42.8496C73.4453 45.5755 73.651 48.0314 74.0625 50.2173C74.474 52.3774 75.1683 54.229 76.1455 55.772C77.1227 57.3149 78.4342 58.4979 80.0801 59.3208C81.7259 60.118 83.7961 60.5166 86.2905 60.5166C88.785 60.5166 90.868 60.0537 92.5396 59.1279C94.2111 58.2021 95.5612 56.9421 96.5898 55.3477C97.6185 53.7533 98.3385 51.9017 98.75 49.793C99.1872 47.6585 99.4058 45.3955 99.4058 43.0039ZM173.545 66.6885C173.545 66.9714 173.494 67.2157 173.391 67.4214C173.288 67.6014 173.044 67.7557 172.658 67.8843C172.272 68.0129 171.707 68.1029 170.961 68.1543C170.215 68.2057 169.199 68.2314 167.914 68.2314C166.833 68.2314 165.972 68.2057 165.329 68.1543C164.686 68.1029 164.172 68.0129 163.786 67.8843C163.426 67.73 163.169 67.55 163.015 67.3442C162.86 67.1128 162.732 66.8428 162.629 66.5342L158.154 55.3862C157.614 54.1261 157.087 53.0075 156.573 52.0303C156.058 51.0531 155.48 50.243 154.837 49.6001C154.22 48.9315 153.5 48.43 152.677 48.0957C151.854 47.7614 150.902 47.5942 149.822 47.5942H146.659V66.6113C146.659 66.8685 146.569 67.0999 146.389 67.3057C146.235 67.5114 145.965 67.6785 145.579 67.8071C145.193 67.9357 144.679 68.0386 144.036 68.1157C143.393 68.1929 142.57 68.2314 141.567 68.2314C140.59 68.2314 139.767 68.1929 139.099 68.1157C138.456 68.0386 137.941 67.9357 137.556 67.8071C137.17 67.6785 136.9 67.5114 136.746 67.3057C136.591 67.0999 136.514 66.8685 136.514 66.6113V21.2866C136.514 20.1551 136.797 19.3451 137.363 18.8564C137.954 18.3421 138.674 18.085 139.523 18.085H152.445C153.757 18.085 154.837 18.1107 155.686 18.1621C156.534 18.2135 157.306 18.2778 158 18.355C160.006 18.6379 161.806 19.1265 163.4 19.8208C165.021 20.5151 166.383 21.4281 167.489 22.5596C168.621 23.6654 169.482 24.9897 170.074 26.5327C170.665 28.05 170.961 29.7987 170.961 31.7788C170.961 33.4504 170.742 34.9805 170.305 36.3691C169.894 37.7321 169.277 38.9536 168.454 40.0337C167.631 41.1138 166.615 42.0524 165.406 42.8496C164.198 43.6468 162.822 44.2897 161.279 44.7783C162.025 45.1383 162.719 45.5755 163.362 46.0898C164.03 46.6042 164.648 47.2342 165.213 47.98C165.805 48.7 166.358 49.5358 166.872 50.4873C167.386 51.4131 167.888 52.4674 168.376 53.6504L172.581 63.4868C172.967 64.464 173.224 65.1841 173.353 65.647C173.481 66.0841 173.545 66.4313 173.545 66.6885ZM160.469 32.8203C160.469 31.1745 160.096 29.7858 159.35 28.6543C158.604 27.5228 157.383 26.7256 155.686 26.2627C155.171 26.1341 154.58 26.0312 153.911 25.9541C153.268 25.877 152.368 25.8384 151.211 25.8384H146.659V39.9951H151.828C153.268 39.9951 154.528 39.828 155.608 39.4937C156.688 39.1336 157.589 38.645 158.309 38.0278C159.029 37.3849 159.569 36.6263 159.929 35.752C160.289 34.8776 160.469 33.9004 160.469 32.8203ZM239.816 64.2197C240.125 65.1455 240.317 65.8784 240.395 66.4185C240.472 66.9585 240.369 67.37 240.086 67.6528C239.803 67.91 239.302 68.0643 238.582 68.1157C237.861 68.1929 236.871 68.2314 235.611 68.2314C234.3 68.2314 233.271 68.2057 232.525 68.1543C231.805 68.1286 231.252 68.0643 230.867 67.9614C230.481 67.8328 230.211 67.6657 230.057 67.46C229.902 67.2542 229.774 66.9842 229.671 66.6499L226.315 56.6206H207.568L204.405 66.3799C204.302 66.7399 204.16 67.0485 203.98 67.3057C203.826 67.5371 203.556 67.73 203.17 67.8843C202.81 68.0129 202.283 68.1029 201.589 68.1543C200.92 68.2057 200.033 68.2314 198.927 68.2314C197.744 68.2314 196.819 68.1929 196.15 68.1157C195.481 68.0386 195.018 67.8586 194.761 67.5757C194.504 67.2671 194.414 66.8428 194.491 66.3027C194.568 65.7627 194.761 65.0426 195.07 64.1426L210.461 19.8594C210.615 19.4222 210.795 19.075 211.001 18.8179C211.207 18.535 211.528 18.3293 211.965 18.2007C212.428 18.0464 213.058 17.9564 213.855 17.9307C214.653 17.8792 215.707 17.8535 217.019 17.8535C218.536 17.8535 219.744 17.8792 220.645 17.9307C221.545 17.9564 222.239 18.0464 222.728 18.2007C223.242 18.3293 223.602 18.535 223.808 18.8179C224.039 19.1007 224.232 19.4865 224.386 19.9751L239.816 64.2197ZM216.903 27.6128H216.864L209.805 48.8286H223.962L216.903 27.6128ZM317.273 65.4155C317.119 66.0327 316.9 66.5342 316.617 66.9199C316.36 67.2799 315.961 67.5628 315.421 67.7686C314.881 67.9486 314.187 68.0643 313.338 68.1157C312.49 68.1929 311.41 68.2314 310.098 68.2314C308.632 68.2314 307.449 68.1929 306.549 68.1157C305.675 68.0643 304.981 67.9486 304.466 67.7686C303.952 67.5628 303.579 67.2799 303.348 66.9199C303.116 66.5342 302.936 66.0327 302.808 65.4155L294.823 33.7847H294.746L287.185 65.4155C287.056 66.007 286.876 66.4956 286.645 66.8813C286.414 67.2414 286.041 67.5243 285.526 67.73C285.038 67.9357 284.356 68.0643 283.482 68.1157C282.633 68.1929 281.502 68.2314 280.087 68.2314C278.596 68.2314 277.4 68.1929 276.5 68.1157C275.626 68.0643 274.931 67.9486 274.417 67.7686C273.903 67.5628 273.53 67.2799 273.298 66.9199C273.067 66.5342 272.874 66.0327 272.72 65.4155L261.379 21.8652C261.147 20.9395 261.019 20.2194 260.993 19.7051C260.967 19.165 261.109 18.7536 261.417 18.4707C261.752 18.1878 262.279 18.0207 262.999 17.9692C263.745 17.8921 264.773 17.8535 266.085 17.8535C267.294 17.8535 268.245 17.8792 268.939 17.9307C269.66 17.9564 270.2 18.0464 270.56 18.2007C270.92 18.3293 271.164 18.535 271.292 18.8179C271.421 19.075 271.524 19.4479 271.601 19.9365L280.357 58.1636H280.396L289.5 20.2065C289.602 19.7179 289.731 19.3193 289.885 19.0107C290.065 18.7021 290.348 18.4707 290.734 18.3164C291.145 18.1364 291.698 18.0207 292.393 17.9692C293.087 17.8921 294.013 17.8535 295.17 17.8535C296.404 17.8535 297.382 17.8792 298.102 17.9307C298.847 17.9821 299.413 18.0978 299.799 18.2778C300.21 18.4321 300.506 18.6636 300.686 18.9722C300.866 19.2808 301.007 19.6922 301.11 20.2065L310.522 58.1636H310.6L319.356 20.0522C319.433 19.6408 319.536 19.2936 319.665 19.0107C319.793 18.7021 320.037 18.4707 320.397 18.3164C320.757 18.1364 321.272 18.0207 321.94 17.9692C322.609 17.8921 323.548 17.8535 324.756 17.8535C325.888 17.8535 326.762 17.8921 327.379 17.9692C328.022 18.0207 328.485 18.1878 328.768 18.4707C329.051 18.7536 329.167 19.1779 329.115 19.7437C329.09 20.2837 328.961 21.0295 328.729 21.981L317.273 65.4155ZM395.116 64.2197C395.424 65.1455 395.617 65.8784 395.694 66.4185C395.771 66.9585 395.669 67.37 395.386 67.6528C395.103 67.91 394.601 68.0643 393.881 68.1157C393.161 68.1929 392.171 68.2314 390.911 68.2314C389.6 68.2314 388.571 68.2057 387.825 68.1543C387.105 68.1286 386.552 68.0643 386.167 67.9614C385.781 67.8328 385.511 67.6657 385.356 67.46C385.202 67.2542 385.074 66.9842 384.971 66.6499L381.615 56.6206H362.868L359.705 66.3799C359.602 66.7399 359.46 67.0485 359.28 67.3057C359.126 67.5371 358.856 67.73 358.47 67.8843C358.11 68.0129 357.583 68.1029 356.889 68.1543C356.22 68.2057 355.333 68.2314 354.227 68.2314C353.044 68.2314 352.118 68.1929 351.45 68.1157C350.781 68.0386 350.318 67.8586 350.061 67.5757C349.804 67.2671 349.714 66.8428 349.791 66.3027C349.868 65.7627 350.061 65.0426 350.37 64.1426L365.761 19.8594C365.915 19.4222 366.095 19.075 366.301 18.8179C366.507 18.535 366.828 18.3293 367.265 18.2007C367.728 18.0464 368.358 17.9564 369.155 17.9307C369.952 17.8792 371.007 17.8535 372.318 17.8535C373.836 17.8535 375.044 17.8792 375.944 17.9307C376.844 17.9564 377.539 18.0464 378.027 18.2007C378.542 18.3293 378.902 18.535 379.107 18.8179C379.339 19.1007 379.532 19.4865 379.686 19.9751L395.116 64.2197ZM372.203 27.6128H372.164L365.105 48.8286H379.262L372.203 27.6128ZM440.209 49.0601V66.6113C440.209 66.8685 440.119 67.0999 439.939 67.3057C439.785 67.5114 439.515 67.6785 439.129 67.8071C438.743 67.9357 438.216 68.0386 437.547 68.1157C436.904 68.1929 436.094 68.2314 435.117 68.2314C434.114 68.2314 433.291 68.1929 432.648 68.1157C432.006 68.0386 431.478 67.9357 431.067 67.8071C430.681 67.6785 430.411 67.5114 430.257 67.3057C430.103 67.0999 430.025 66.8685 430.025 66.6113V49.0601L416.37 21.8652C415.882 20.9137 415.56 20.1808 415.406 19.6665C415.277 19.1265 415.354 18.7279 415.637 18.4707C415.946 18.1878 416.499 18.0207 417.296 17.9692C418.093 17.8921 419.199 17.8535 420.613 17.8535C421.796 17.8535 422.735 17.8792 423.429 17.9307C424.149 17.9821 424.715 18.085 425.126 18.2393C425.538 18.3678 425.834 18.5479 426.014 18.7793C426.219 19.0107 426.412 19.3065 426.592 19.6665L432.147 31.9331C432.687 33.116 433.214 34.3633 433.729 35.6748C434.269 36.9863 434.809 38.3621 435.349 39.8022H435.426C435.914 38.4136 436.416 37.0635 436.93 35.752C437.444 34.4404 437.946 33.1932 438.435 32.0103L443.912 19.8208C444.041 19.4093 444.195 19.0879 444.375 18.8564C444.581 18.5993 444.876 18.3936 445.262 18.2393C445.648 18.085 446.175 17.9821 446.844 17.9307C447.512 17.8792 448.4 17.8535 449.505 17.8535C450.971 17.8535 452.103 17.8921 452.9 17.9692C453.723 18.0207 454.276 18.1878 454.559 18.4707C454.867 18.7279 454.944 19.1265 454.79 19.6665C454.636 20.2065 454.327 20.9395 453.864 21.8652L440.209 49.0601Z" fill="#098C8C"/>
</svg>
